<svg xmlns="http://www.w3.org/2000/svg" viewBox="0 0 400 300" width="400" height="300">
  <!-- Céu -->
  <rect width="400" height="150" fill="#87CEEB"/>
  
  <!-- Oceano -->
  <rect y="150" width="400" height="150" fill="#1E90FF"/>
  
  <!-- Ondas -->
  <path d="M 0,180 Q 50,175 100,180 T 200,180 T 300,180 T 400,180 L 400,300 L 0,300 Z" fill="#00BFFF" opacity="0.6"/>
  
  <!-- Falésia -->
  <polygon points="0,300 0,100 150,80 200,90 250,85 300,95 400,100 400,300" fill="#8B4513"/>
  <polygon points="0,300 0,100 150,80 200,90 250,85 300,95 400,100 400,300" fill="#A0522D" opacity="0.7"/>
  
  <!-- Vegetação na falésia -->
  <circle cx="100" cy="120" r="15" fill="#228B22"/>
  <circle cx="180" cy="110" r="12" fill="#228B22"/>
  <circle cx="280" cy="115" r="18" fill="#228B22"/>
  
  <!-- Terraços agrícolas -->
  <rect x="50" y="200" width="80" height="20" fill="#90EE90" stroke="#228B22" stroke-width="1"/>
  <rect x="50" y="220" width="80" height="20" fill="#90EE90" stroke="#228B22" stroke-width="1"/>
  <rect x="50" y="240" width="80" height="20" fill="#90EE90" stroke="#228B22" stroke-width="1"/>
  
  <!-- Skywalk em vidro -->
  <rect x="250" y="100" width="120" height="8" fill="#E0E0E0" opacity="0.8"/>
  <rect x="250" y="100" width="120" height="8" fill="#FFFFFF" opacity="0.3"/>
  
  <!-- Suportes do skywalk -->
  <line x1="250" y1="100" x2="250" y2="150" stroke="#708090" stroke-width="4"/>
  <line x1="370" y1="100" x2="370" y2="150" stroke="#708090" stroke-width="4"/>
  
  <!-- Plataforma -->
  <rect x="200" y="95" width="200" height="60" fill="#C0C0C0"/>
  <rect x="200" y="95" width="200" height="5" fill="#A0A0A0"/>
  
  <!-- Pessoas no skywalk (silhuetas) -->
  <circle cx="280" cy="90" r="6" fill="#4169E1"/>
  <rect x="277" y="92" width="6" height="8" fill="#4169E1"/>
  
  <circle cx="320" cy="88" r="6" fill="#FF69B4"/>
  <rect x="317" y="90" width="6" height="8" fill="#FF69B4"/>
</svg>

